# xmcd CD database file
#
# Track frame offsets:
#	150
#	17858
#	34206
#	53345
#	71361
#	86798
#	92590
#	105036
#	121597
#	141211
#
# Disc length: 2085 seconds
#
# Revision: 0
# Processed by: cddbd v1.5.2PL0 Copyright (c) Steve Scherf et al.
# Submitted via: CDex 1.51
#
DISCID=7008230a
DTITLE=Randy Heidema - Between a Laugh and a Tear
DYEAR=2005
DGENRE=Country
TTITLE0=One More Try Tonight
TTITLE1=Waste Time
TTITLE2=Lullaby
TTITLE3=Emily
TTITLE4=Finally Found
TTITLE5=Intermission
TTITLE6=Yeah Yeah Yeah
TTITLE7=Over Me
TTITLE8=Give Me a Name
TTITLE9=Your Love
EXTD=YEAR: 2005
EXTT0=
EXTT1=
EXTT2=
EXTT3=
EXTT4=
EXTT5=
EXTT6=
EXTT7=
EXTT8=
EXTT9=
PLAYORDER=
